<svg width="401" height="397" viewBox="0 0 401 397" fill="none" xmlns="http://www.w3.org/2000/svg">
<g id="Symbol" filter="url(#filter0_bd_6107_18468)">
<path d="M271.763 189.644H315.385C321.5 189.644 326.596 188.013 330.877 184.752L305.6 228.781C303.562 232.247 299.893 234.285 295.612 234.285H271.763V249.981L248.933 211.862L271.763 173.744V189.644ZM236.498 234.285H199.399C187.78 234.285 178.2 224.704 178.2 213.085C178.2 209.824 179.627 204.32 181.665 200.855L188.188 189.236H236.498V234.285ZM259.94 112.184L238.129 74.2698C235.071 68.97 230.995 65.3008 226.102 63.2624H276.247C280.732 63.2624 284.197 65.097 286.236 68.5623L298.67 89.7617L312.123 81.8119L290.516 120.542L246.283 119.93L259.94 112.184ZM198.788 161.31L176.977 199.02C174.938 202.69 173.308 208.193 173.308 211.659C173.308 212.474 173.308 213.493 173.511 214.92L148.031 171.094C147.216 169.667 146.604 167.629 146.604 165.794C146.604 163.96 147.216 161.718 148.031 160.291L160.262 138.887L146.604 131.141L191.042 130.326L212.649 169.26L198.788 161.31ZM177.996 107.496L196.546 75.4929C200.418 68.7661 206.738 65.097 214.484 65.097C222.841 65.097 229.364 68.97 234.052 76.9198L240.983 88.5387L216.93 130.122L177.996 107.496ZM316.404 120.949L334.953 152.952C336.788 156.214 337.807 159.679 337.807 163.348C337.807 170.687 333.119 178.433 326.596 182.102C323.538 183.732 319.258 184.752 314.977 184.752H301.524L277.47 143.168L316.404 120.949Z" fill="#386BF6"/>
<path d="M270.369 189.644V191.038H271.763H315.385C319.693 191.038 323.555 190.259 327.01 188.686L304.399 228.074C304.397 228.076 304.396 228.079 304.395 228.081C302.622 231.089 299.429 232.891 295.612 232.891H271.763H270.369V234.285V244.94L250.558 211.862L270.369 178.785V189.644ZM189.004 190.63H235.104V232.891H199.399C188.55 232.891 179.594 223.934 179.594 213.085C179.594 211.623 179.92 209.563 180.512 207.417C181.102 205.278 181.928 203.158 182.867 201.562L182.874 201.55L182.881 201.538L189.004 190.63ZM260.628 113.397L261.848 112.705L261.149 111.489L239.338 73.5746L239.337 73.5731C237.189 69.8504 234.54 66.8695 231.452 64.6566H276.247C280.308 64.6566 283.28 66.287 285.034 69.2692L297.467 90.4671L298.175 91.6736L299.379 90.962L308.394 85.635L289.704 119.136L251.441 118.607L260.628 113.397ZM199.481 160.1L198.276 159.409L197.581 160.612L175.77 198.322L175.764 198.333L175.758 198.343C173.989 201.528 172.498 206.043 172.051 209.634L149.242 170.403C149.241 170.401 149.24 170.4 149.239 170.398C148.534 169.163 147.999 167.363 147.999 165.794C147.999 164.198 148.549 162.195 149.242 160.982L161.472 139.579L162.166 138.365L160.95 137.675L151.723 132.442L190.229 131.735L209.002 165.561L199.481 160.1ZM239.366 88.5495L216.422 128.215L179.901 106.99L197.752 76.192L197.754 76.1885C201.379 69.8916 207.239 66.4912 214.484 66.4912C222.3 66.4912 228.389 70.0608 232.851 77.628L232.855 77.634L239.366 88.5495ZM279.379 143.684L315.892 122.847L333.738 153.636C333.74 153.638 333.741 153.641 333.743 153.643C335.473 156.722 336.413 159.952 336.413 163.348C336.413 170.154 332.024 177.441 325.926 180.879C323.101 182.382 319.058 183.357 314.977 183.357H302.328L279.379 143.684Z" stroke="url(#paint0_linear_6107_18468)" stroke-width="2.78835"/>
</g>
<defs>
<filter id="filter0_bd_6107_18468" x="0.215992" y="0.524502" width="400.33" height="395.845" filterUnits="userSpaceOnUse" color-interpolation-filters="sRGB">
<feFlood flood-opacity="0" result="BackgroundImageFix"/>
<feGaussianBlur in="BackgroundImageFix" stdDeviation="4.18253"/>
<feComposite in2="SourceAlpha" operator="in" result="effect1_backgroundBlur_6107_18468"/>
<feColorMatrix in="SourceAlpha" type="matrix" values="0 0 0 0 0 0 0 0 0 0 0 0 0 0 0 0 0 0 127 0" result="hardAlpha"/>
<feOffset dx="-41.8253" dy="41.8253"/>
<feGaussianBlur stdDeviation="52.2816"/>
<feComposite in2="hardAlpha" operator="out"/>
<feColorMatrix type="matrix" values="0 0 0 0 0.164706 0 0 0 0 0.313726 0 0 0 0 0.47451 0 0 0 0.1 0"/>
<feBlend mode="normal" in2="effect1_backgroundBlur_6107_18468" result="effect2_dropShadow_6107_18468"/>
<feBlend mode="normal" in="SourceGraphic" in2="effect2_dropShadow_6107_18468" result="shape"/>
</filter>
<linearGradient id="paint0_linear_6107_18468" x1="242.206" y1="63.2624" x2="242.206" y2="249.981" gradientUnits="userSpaceOnUse">
<stop stop-color="white" stop-opacity="0.9"/>
<stop offset="1" stop-color="white" stop-opacity="0.2"/>
</linearGradient>
</defs>
</svg>
